<?xml version="1.0" encoding="UTF-8"?>
<svg width="1247" height="727" viewBox="0 0 1247 727" xmlns="http://www.w3.org/2000/svg">
    <path fill-rule="evenodd" stroke="#000000" stroke-linecap="round" stroke-linejoin="round" d="M 12 726.546448 C 12 726.212891 10.23941 712.791016 8.087578 696.720032 C 3.235634 660.483154 1.570781 646.095886 2.161186 645.505493 C 2.41235 645.254333 9.791332 649.154968 18.558924 654.173584 C 57.346607 676.375854 71.417778 680.599426 72.118484 670.25 C 72.355576 666.748169 71.661377 665.311768 63.068142 651.523926 C 33.857689 604.65564 8.065442 547.129639 3.013901 517.581299 C -8.507179 450.190216 14.950631 447.498535 90.082993 507.590515 C 111.20015 524.480347 129.967819 536.912598 148.75 546.453247 C 152.737503 548.47876 156 550.230469 156 550.345825 C 156 550.461243 158.037796 564.493164 160.528442 581.527832 C 166.667007 623.512329 166.498047 622 165.050095 622 C 162.738739 622 138.316025 610.363098 129.531616 605.076233 C 109.457001 592.994385 100 592.1651 100 602.486694 C 100 611.049438 133.756271 659.450989 155.545959 682.13147 C 179.924103 707.506287 171.114594 718.196472 120.5 724.659302 C 107.429016 726.328247 12 727.988098 12 726.546448 Z M 284.5 574.5 L 285.5 654.5 L 288.110718 660.066589 C 293.998993 672.621704 302.629517 677.569458 318.252563 677.346619 C 340.635193 677.027344 353.520355 669.003479 356.62146 653.453491 C 357.055115 651.279053 357.430176 628.799988 357.454956 603.5 L 357.5 557.5 L 365.5 554.759583 C 384.833649 548.136719 422.09906 531.872925 437.953766 523.138428 C 440.953369 521.485901 443.716431 520.324707 444.093933 520.558044 C 445.223541 521.256165 445.154999 696.462158 444.023956 699.437012 C 438.646576 713.580505 416.616333 723.079407 382.5 725.964539 C 368.897125 727.114929 260.109131 727.102173 241 725.947998 C 217.782333 724.545593 201.296326 719.911438 198.26474 713.93512 C 196.811508 711.070313 196.435226 569.439209 197.874817 567.168335 C 198.563583 566.081787 200.816025 566.30127 210.109497 568.360352 C 227.982498 572.320374 235.837296 573.168823 261 573.857178 L 284.5 574.5 Z M 796 288.24173 C 840.994873 264.742706 876.981689 249 882.16626 249 C 883.930115 249 884.000549 252.248932 884.014771 334.25 C 884.03064 426.209167 883.855469 423.203918 889.354004 425.840363 C 897.290833 429.645966 897.737183 428.794769 909.463684 387.489349 C 932.488525 306.38678 956.620117 232.127228 960.424988 230.667145 C 973.493713 225.652222 1048.61145 232.848999 1049.813354 239.231171 C 1049.992676 240.183319 1047.893677 246.483337 1045.149048 253.231171 C 1025.572876 301.35907 984.999023 427.620911 985.000305 440.408112 C 985.000488 442.108643 988.822632 458.350006 993.493958 476.5 C 1010.663574 543.210632 1051 717.531067 1051 725.02179 C 1051 727.156982 960.885864 728.242371 959.575928 726.122864 C 959.277832 725.640503 957.254333 717.203003 955.079285 707.372925 C 932.865417 606.976379 902.242126 487.935608 897.648132 484.122955 C 894.648621 481.633545 890.442993 481.714905 887.413147 484.320923 L 884.5 486.826599 L 884.238037 606.91333 L 883.976074 727 L 839.988037 727 L 796 727 L 796 507.62085 L 796 288.24173 Z M 1232.839966 378.5 C 1239.915283 445.149994 1242.172974 465.962494 1242.421875 467.75 C 1243.214966 473.447418 1240.783325 471.572235 1224.241455 453.729919 C 1195.220825 422.427673 1185.136719 414.061737 1179.356445 416.492157 C 1173.884644 418.792877 1173.704102 422.368866 1178.411987 435.200378 C 1183.405151 448.809387 1208.705078 515.083557 1224.526978 556 C 1242.158691 601.597046 1242.162964 617.774048 1243.543945 630.321777 C 1243.953247 634.040771 1243.855469 635.950317 1244.016113 639.567261 C 1245.407104 670.897095 1215.537842 709.577454 1175.307129 723.720337 L 1167.5 726.464905 L 1128.787231 726.804932 L 1090.074463 727.14502 L 1089.591064 724.82251 C 1089.325073 723.545105 1088.164063 709 1087.010864 692.5 C 1085.857666 676 1083.342773 642.078186 1081.422241 617.118225 C 1079.501587 592.158203 1078.113281 571.553406 1078.336914 571.329712 C 1079.438354 570.228271 1112.869385 578.25415 1133 584.452759 C 1148.934082 589.359253 1154 588.36554 1154 580.33374 C 1154 576.523499 1134.141968 526.769592 1103.005615 452.568024 C 1084.246704 407.863617 1082.569092 402.795929 1079.64502 382 C 1068.536377 302.997162 1102.460693 262.252533 1152.5 294.497864 C 1170.374268 306.015991 1202.918579 339.535706 1228.232544 372.5 L 1232.839966 378.5 Z M 767.428711 636.688599 C 726.719055 709.49707 675.647034 734.31427 602.5 724.410217 C 537.534607 715.614014 491.326965 689.300781 478.855438 654 C 464.316284 612.846863 504.641327 525.990845 572.771484 451.714569 C 645.929749 371.956573 718.278687 337.613983 760 362.840912 C 768.304321 367.862152 768.302307 367.744568 760.278015 379.239349 C 756.55011 384.57959 749.854004 394.247894 745.397827 400.724457 C 691.238342 479.439056 699.698425 469.849121 687.380005 466.490875 C 671.714844 462.220184 662.820374 464.34845 640.5 477.708191 C 555.150757 528.79364 532.778381 623.48999 602.063904 640.398193 C 630.590942 647.359802 666.163574 630.180237 691.145874 597.376526 C 695.073303 592.219421 698.69458 588 699.192993 588 C 704.576965 588 742.895325 614.804932 762.464355 632.260437 L 767.428711 636.688599 Z M 309 0 C 492.655884 0.035889 493.916077 0.162903 516.399292 13.428833 C 565.418335 42.351929 583.571045 96.792236 564.132507 156.58197 C 561.824951 163.679626 554.908447 179.622681 547.032043 196 C 524.731445 242.36911 520.732178 251.758331 521.511414 255.915466 C 523.133911 264.571136 558.176025 328.62912 579.732849 362.345825 C 582.140137 366.111023 583.969543 369.919678 583.798157 370.809479 C 582.995178 374.978973 478.096252 445.018402 474.640594 443.692322 C 473.232269 443.151917 466.319916 431.10495 454.73465 409 C 445.193207 390.794708 429.553833 355.880707 415.425049 321.243652 C 412.650909 314.44278 405.192139 315.115723 401.5 322.5 C 399.55899 326.382019 399.490997 328.823364 399.194641 405.263214 L 398.889313 484.026428 L 396.694641 485.442139 C 383.69751 493.826355 313.045227 515.711914 309.717773 512.38446 C 309.322998 511.989685 309 396.541656 309 255.833344 L 309 0 Z M 10 360.891327 L 10 0.094849 L 101.977844 0.13208 C 206.745911 0.1745 199.199829 -0.429504 213.600876 9.066528 C 281.845154 54.066528 303.071167 210.262878 251.278503 286.325287 C 243.587357 297.620453 243.397415 300.031219 249.478088 309.17572 C 309.404053 399.296021 270.000183 528.183838 189.171692 506.434631 C 136.962143 492.386169 74.182938 443.355225 21.133289 375.195648 L 10 360.891327 Z M 153.807343 379.649567 C 161.265305 376.94751 166.810471 368.381744 165.66626 361.330841 C 165.358093 359.431854 159.299026 347.66806 152.201645 335.189087 C 145.104263 322.710083 135.967911 306.477966 131.898651 299.117737 C 122.087105 281.371155 116.68927 278.30661 109.349457 286.315735 C 103.761963 292.41275 102.841209 297.508057 102.268661 325.5 C 101.631897 356.6315 101.347046 355.679657 113.693001 363.674561 C 135.309097 377.672546 146.720749 382.217102 153.807343 379.649567 Z M 716.69342 278.05777 C 687.093506 298.494873 665.075439 314.006897 648.667664 325.714111 C 615.173401 349.612854 616.553101 348.875519 618.660461 341.75 C 620.670471 334.953613 635.744568 292.728241 649.98645 254 C 697.909119 123.682922 736.098083 44.673157 768.043396 9.75 C 776.78656 0.191772 774.548828 -0.198181 791.34198 13.810425 C 799.128906 20.306152 814.049988 32.568665 824.5 41.060425 C 870.371155 78.335754 904.773804 118.467896 929.901978 164.016357 C 936.165894 175.370605 936.222534 175.18335 925.855408 177.403198 C 902.78595 182.342957 872.760254 192.423645 846.74762 203.962341 C 830.181641 211.31073 832.676819 211.689026 825.331848 200.715393 C 809.358704 176.85083 783.395508 144.388367 779.500122 143.410645 C 774.690979 142.203674 771.299377 144.673889 767.894592 151.863586 C 758.065063 172.61969 737.966064 221.624084 723.018188 261.2789 L 716.69342 278.05777 Z M 399.5 270.177948 C 405.973206 275.417999 414.359985 274.37207 421.26416 269.787964 C 426.598511 266.246124 426.791809 265.941895 434.250854 249.346313 C 455.06842 203.029419 469.072815 170.885925 469.614319 168.178406 C 471.33017 159.599243 462.549255 147.804749 453.427948 146.436951 C 448.855255 145.751221 416.230743 152.43457 405.010864 156.35553 C 398.782288 158.532166 398.91861 157.119629 399.223145 216.338989 L 399.5 270.177948 Z M 126.190857 244.817596 C 135.86937 239.658997 165.283249 206.486633 168.468887 197.137268 C 174.078476 180.674011 164.878799 163.678528 147.600632 158.585266 C 106.529953 146.478333 107.527641 146.606995 104.294006 153 C 102.262039 157.017273 102.46122 239.057434 104.512573 243.024323 C 108.00087 249.769928 115.703789 250.407135 126.190857 244.817596 Z M 964 170.729614 L 964 0 L 1031.75 0.010315 C 1134.086304 0.025879 1152.961304 2.816895 1182.171387 22.252625 C 1221.348511 48.32019 1248.475586 112.940369 1246.712769 175.997986 C 1245.486572 219.857727 1230.626709 234.530304 1194.5 227.552979 C 1177.154053 224.20285 1156.427246 217.559753 1121 203.995728 C 1047.704468 175.932983 1026.34729 170.737976 984.25 170.732361 L 964 170.729614 Z M 1123.539917 143.457153 C 1145.71936 137.715698 1157.345337 119.943176 1150.995361 101.48645 C 1139.938354 69.348877 1075.697021 28.909485 1057.38855 42.561768 C 1050.819946 47.4599 1050.605347 48.248535 1049.703125 70.802551 C 1047.592773 123.562012 1049.698853 128.169678 1080.596191 138.391785 C 1100.888062 145.105164 1112.075806 146.424805 1123.539917 143.457153 Z"/>
</svg>
