<svg version="1.1" class="bradsucks-logo" xmlns="http://www.w3.org/2000/svg" xmlns:xlink="http://www.w3.org/1999/xlink" x="0px" y="0px" viewBox="0 0 1246 728" enable-background="new 0 0 1246 728" xml:space="preserve">
<path class="bradsucks-logo-letter-b" opacity="1.000000" stroke="none" d="M249.859406,50.110695   C257.749176,64.368965 264.688599,79.039513 269.326019,94.719612   C274.038483,110.653511 278.046722,126.746338 278.950684,143.405991   C279.828278,159.579453 281.251862,175.798553 280.796570,191.951416   C280.118225,216.015152 275.211853,239.530807 266.392578,261.964661   C261.885071,273.430542 255.982849,284.363373 247.785065,293.853302   C245.518784,296.476807 245.541473,304.956177 247.665009,308.340851   C254.727249,319.597137 262.139008,330.786774 267.656494,342.809784   C271.835815,351.916840 273.742950,362.166016 275.919434,372.069946   C279.374695,387.792816 279.999878,403.886749 278.835846,419.835114   C277.097748,443.649078 270.628265,465.922974 254.861481,484.848419   C245.554031,496.020538 235.179626,505.562256 220.783478,508.814301   C205.203400,512.333801 190.016922,510.186340 174.997208,504.214264   C150.535187,494.487823 128.146606,481.279938 107.262032,465.530182   C96.796738,457.637909 87.062958,448.718140 77.428764,439.798187   C68.474304,431.507599 59.702942,422.948578 51.553623,413.876556   C40.902046,402.019012 30.918139,389.560242 20.700863,377.315155   C18.224638,374.347473 15.521978,371.438019 13.721181,368.074646   C11.952746,364.771729 10.157013,360.927185 10.151205,357.317444   C9.960569,238.857529 9.984450,120.397278 9.988291,1.468538   C72.354225,1.000000 134.708450,1.000000 197.531342,1.000000   C198.443390,1.659240 198.741745,2.639017 199.357376,2.917624   C201.205688,3.754058 203.177826,4.316875 205.589951,5.401358   C207.077103,6.196018 208.075928,6.575774 209.074768,6.955528   C209.074768,6.955528 209.011154,6.985062 209.048737,7.306610   C210.081207,8.070179 211.076096,8.512199 212.070984,8.954220   C212.070984,8.954220 212.008286,8.988587 212.033813,9.308039   C214.066376,10.736536 216.073410,11.845582 218.080444,12.954628   C218.080444,12.954627 218.012665,12.978487 218.035645,13.302376   C219.067047,14.074367 220.075455,14.522469 221.083862,14.970570   C221.083862,14.970570 221.014145,14.975984 221.026154,15.297239   C222.980499,17.097851 224.922821,18.577208 226.865143,20.056564   C231.172485,24.790730 235.479843,29.524891 239.893982,34.931915   C240.696594,36.390915 241.392410,37.177052 242.088226,37.963181   C242.088226,37.963181 242.018723,37.987862 241.983582,38.316307   C242.657501,39.419552 243.366577,40.194347 244.075638,40.969143   C244.075638,40.969143 244.012299,40.995415 243.985535,41.332687   C245.335434,43.434891 246.712082,45.199818 248.088745,46.964745   C248.088745,46.964745 248.019318,46.986969 247.979385,47.300812   C248.579437,48.446671 249.219421,49.278683 249.859406,50.110695  M162.015182,169.525558   C158.927124,167.128098 156.187057,163.678345 152.688736,162.521515   C139.845856,158.274506 126.842361,154.419479 113.711304,151.178711   C107.488480,149.642914 104.060028,152.489059 104.043495,157.725250   C103.955750,185.519943 103.964905,213.315094 104.018982,241.109924   C104.027969,245.729385 108.541336,250.188339 113.074554,249.947647   C122.471443,249.448715 130.456665,245.292755 136.706009,238.605453   C145.355988,229.349243 153.631943,219.706360 161.558502,209.820496   C171.957321,196.851318 173.593842,182.856354 162.015182,169.525558  M124.977722,289.403320   C120.338112,283.441742 112.244492,283.115784 109.145569,289.497955   C106.249062,295.463287 104.320999,302.107574 103.201981,308.663879   C102.236290,314.321777 103.010841,320.276245 103.011253,326.099609   C103.011871,334.772003 102.656059,343.466644 103.200890,352.104553   C103.387154,355.057648 105.067169,359.014160 107.371590,360.545288   C117.137436,367.034027 127.263161,373.020355 137.523209,378.710999   C143.439133,381.992218 149.422821,383.401855 156.378448,379.498199   C164.020645,375.209198 168.100403,364.368042 163.445358,356.981934   C160.260452,351.928467 157.105804,346.846375 154.180313,341.640686   C144.530548,324.469513 134.991135,307.236328 124.977722,289.403320  z"/>
<path class="bradsucks-logo-letter-r" opacity="1.000000" stroke="none" d="M308.913940,372.890869   C308.942657,359.393463 308.995972,345.896088 308.996246,332.398682   C308.998474,222.244873 308.990814,112.091049 308.993073,1.468617   C366.354218,1.000000 423.708466,1.000000 481.531342,1.000001   C482.524170,1.658642 482.977631,2.807732 483.584137,2.895187   C487.139191,3.407778 490.729950,3.672277 494.790833,4.437499   C498.299927,5.932761 501.326843,7.010979 504.353790,8.089198   C504.353790,8.089199 504.555298,8.015046 504.760376,8.410644   C508.392212,10.546963 511.819000,12.287684 515.245789,14.028402   C515.245789,14.028399 515.544495,13.996585 515.777710,14.420532   C517.448914,15.583530 518.886902,16.322580 520.324890,17.061630   C520.324890,17.061630 520.490906,16.996374 520.753601,17.370308   C521.474609,17.856028 521.932861,17.967815 522.391174,18.079599   C522.731506,18.355032 523.071838,18.630470 523.714600,19.367846   C524.791992,20.237671 525.567017,20.645555 526.342041,21.053444   C526.342041,21.053450 526.491455,20.980234 526.698181,21.327301   C527.291992,21.764475 527.679138,21.854584 528.066223,21.944695   C528.066223,21.944698 528.008118,21.998756 528.047302,22.254827   C528.415771,22.663572 528.745056,22.816248 529.074341,22.968922   C529.074341,22.968924 529.011353,22.990864 529.065063,23.238926   C529.442444,23.650293 529.766174,23.813601 530.089905,23.976902   C530.089905,23.976900 530.017090,23.992739 530.126709,24.220879   C530.569458,24.640301 530.902588,24.831585 531.235657,25.022869   C531.507019,25.019169 531.778381,25.015472 532.394531,25.226250   C532.739380,25.440722 532.884766,25.511602 532.884766,25.511602   C532.884766,25.511602 533.137024,25.667240 533.132080,26.143644   C533.776245,27.065672 534.425415,27.511295 535.074524,27.956917   C535.074524,27.956915 535.014038,27.991688 535.047607,28.249752   C535.413086,28.661333 535.745117,28.814848 536.077087,28.968361   C536.077087,28.968357 536.012512,28.989071 536.049805,29.246140   C536.417480,29.658783 536.747925,29.814358 537.078308,29.969933   C537.078308,29.969933 537.007080,29.979679 536.962830,30.266638   C537.272095,31.061422 537.625671,31.569246 538.259888,32.101624   C538.718323,32.065784 538.896179,32.005398 539.073975,31.945011   C539.073975,31.945011 539.019836,31.991997 539.045654,32.251396   C539.407227,32.665936 539.743042,32.821079 540.078857,32.976227   C540.078857,32.976227 540.012512,32.989208 540.053833,33.242592   C540.422546,33.658188 540.749878,33.820396 541.077271,33.982605   C541.077271,33.982601 541.009888,33.990135 541.051392,34.243752   C541.420959,34.659061 541.749084,34.820763 542.077148,34.982460   C542.077148,34.982464 542.009827,34.990227 542.052368,35.243156   C542.422241,35.658356 542.749634,35.820618 543.076965,35.982883   C543.076965,35.982887 543.009521,35.990479 543.053345,36.242775   C543.424438,36.656651 543.751587,36.818230 544.078796,36.979809   C544.078796,36.979809 544.011292,36.987347 544.043823,37.246948   C544.410461,37.662151 544.744507,37.817749 545.078613,37.973351   C545.078613,37.973351 545.010193,37.984280 544.978516,38.276779   C545.583618,39.073608 546.220459,39.577938 546.857239,40.082260   C549.577759,43.888081 552.339600,47.665115 555.011108,51.505054   C563.298401,63.417164 568.935730,76.483246 570.908386,90.872581   C572.087524,99.473595 572.811646,108.199760 572.873413,116.875839   C572.957153,128.636749 570.685120,140.102768 567.353455,151.438583   C563.577820,164.284805 558.661865,176.550613 552.365356,188.371155   C546.973755,198.492722 542.107971,208.907639 537.333862,219.341187   C532.294922,230.353546 527.297363,241.413055 523.047241,252.739212   C521.921997,255.737885 523.614441,259.793884 524.173645,264.039307   C524.831116,265.660370 525.328064,266.606476 525.824951,267.552612   C525.824951,267.552612 526.149414,267.747314 526.164917,268.279236   C529.390686,274.725372 532.600891,280.639587 535.811096,286.553772   C543.007263,299.979156 549.883118,313.589325 557.489380,326.778198   C565.157959,340.075226 573.533997,352.965027 581.635742,366.011047   C585.226379,371.792816 584.988831,373.318787 579.203430,377.371368   C560.434509,390.518829 541.775940,403.830994 522.797424,416.669708   C508.869843,426.091553 494.547485,434.934296 480.318359,443.903961   C474.268616,447.717590 472.971771,447.135559 468.022095,437.961700   C460.560425,424.132172 452.577606,410.515289 446.164795,396.203766   C435.529205,372.468201 425.933685,348.265472 415.989349,324.222626   C414.676208,321.047821 412.900085,318.678650 409.244629,319.063965   C405.607544,319.447357 402.603638,321.162079 402.051239,325.192566   C401.231995,331.169891 400.128021,337.175537 400.066071,343.178650   C399.587219,389.576202 399.273743,435.975861 399.092010,482.375549   C399.073822,487.019958 396.580109,488.352600 392.946838,489.679077   C379.035858,494.758026 365.371521,500.571289 351.295349,505.121155   C339.006653,509.093292 326.298584,511.777527 313.746094,514.911804   C312.180969,515.302612 310.434021,514.965210 308.010193,514.965210   C308.010193,477.519440 308.010193,440.141663 308.332886,401.968567   C308.741699,391.745758 308.827820,382.318329 308.913940,372.890869  M422.634064,271.082458   C424.021057,269.737000 425.408051,268.391541 426.983002,266.302246   C440.019104,237.028076 453.078583,207.764297 466.067871,178.469360   C468.195221,173.671494 470.631500,169.009644 469.023987,163.274567   C466.268890,153.445511 454.796539,145.737946 445.448242,148.769211   C435.161926,152.104660 424.316010,153.705521 413.725952,156.115082   C400.894989,159.034561 400.018280,160.075317 400.015503,171.870163   C400.012817,183.355820 400.002380,194.841461 400.000885,206.327118   C399.998413,225.302963 399.547791,244.294205 400.192169,263.248169   C400.512604,272.672607 400.770203,277.403595 410.751007,275.964050   C415.578827,276.684692 419.415619,275.206238 421.981598,270.974670   C421.981598,270.974670 421.912262,270.959869 422.634064,271.082458  z"/>
<path class="bradsucks-logo-letter-a" opacity="1.000000" stroke="none" d="M619.435791,348.733154   C615.484863,348.800507 617.277588,347.012543 617.856323,345.358704   C622.960083,330.773956 627.690247,316.051086 633.103516,301.583374   C648.424133,260.636810 663.420959,219.552979 679.699829,178.986496   C691.506226,149.565033 704.439697,120.537857 718.219910,91.986053   C727.963623,71.797523 739.525330,52.432507 751.148071,33.228001   C756.752747,23.967344 764.226257,15.806921 771.134338,7.378515   C774.771545,2.940830 776.737061,3.128749 780.951599,6.654998   C799.765930,22.396786 818.797607,37.884369 837.401794,53.869850   C849.310486,64.102348 861.169434,74.503227 872.065125,85.780815   C893.089783,107.542686 910.425598,132.236572 926.358704,157.892960   C930.087524,163.897308 933.056335,170.373657 936.754456,177.348892   C931.242859,178.968124 926.288574,180.502090 921.290344,181.876099   C910.085938,184.956116 898.649536,187.348343 887.692322,191.134155   C871.842041,196.610565 856.250122,202.870605 840.708740,209.191620   C831.743103,212.838150 832.199036,212.958572 826.711060,205.462936   C814.693665,189.049316 802.419312,172.820511 790.030701,156.684555   C787.168701,152.956787 783.936462,148.981628 779.956360,146.780701   C775.163025,144.130005 771.130310,146.688446 769.081055,151.692673   C763.461609,165.415131 757.747498,179.098846 752.057678,192.792435   C747.058167,204.824799 741.855835,216.776825 737.077209,228.896072   C730.877747,244.618805 724.909790,260.435303 719.051453,276.288757   C716.949158,281.977722 711.775513,284.415894 707.528442,287.516785   C692.306580,298.630554 676.699158,309.217285 661.209656,319.963135   C647.423340,329.527466 633.599976,339.038422 619.435791,348.733154  z"/>
<path class="bradsucks-logo-letter-d" opacity="1.000000" stroke="none" d="M1247.000000,201.531342   C1246.406006,202.168701 1245.449463,202.162903 1245.271729,202.532013   C1242.060791,209.201172 1239.386108,216.173462 1235.673462,222.542694   C1232.411377,228.139008 1225.815552,229.245712 1220.158325,230.872635   C1210.093628,233.767059 1199.989136,231.581863 1190.053955,229.495636   C1164.067261,224.038895 1139.669312,213.827667 1114.890747,204.624756   C1090.003540,195.381531 1064.718872,187.142044 1039.348145,179.304810   C1030.515991,176.576492 1020.937500,176.081390 1011.644531,175.079132   C1002.172241,174.057556 992.639709,173.348923 983.118469,173.113098   C976.933411,172.959900 970.721375,173.898453 964.000793,174.385605   C964.000793,172.468185 964.000793,171.351517 964.000793,170.234848   C964.000488,115.422409 963.997498,60.609966 964.016724,5.797533   C964.017151,4.489667 964.265747,3.181887 964.199341,1.437033   C976.020874,1.000000 988.041809,1.000000 1000.247070,1.370450   C1004.572449,3.869210 1007.728882,3.596285 1009.000000,1.000000   C1039.687622,1.000000 1070.375122,1.000000 1101.268311,1.390728   C1102.323242,2.185162 1103.145386,2.860563 1104.026611,2.949787   C1111.359009,3.692120 1118.727539,4.123732 1126.037231,5.033427   C1143.787476,7.242455 1161.155640,10.896094 1176.453735,20.852247   C1183.258667,25.280926 1190.331299,29.552849 1196.271729,34.998493   C1206.508911,44.383045 1214.681030,55.537361 1221.454956,67.773682   C1233.077515,88.769066 1240.233398,111.179771 1244.121948,134.763779   C1244.480957,136.941498 1246.012817,138.925858 1247.000000,141.000000   C1247.000000,161.020889 1247.000000,181.041794 1247.000000,201.531342  M1138.880249,83.522346   C1138.560425,83.354362 1138.240479,83.186378 1137.988770,83.011513   C1137.988770,83.011513 1137.980591,83.079445 1137.887939,82.516579   C1137.566040,82.351555 1137.244141,82.186539 1136.989380,82.013771   C1136.989380,82.013771 1136.973022,82.079285 1136.921631,81.496872   C1136.589600,81.341064 1136.257690,81.185257 1135.990479,81.010353   C1135.990479,81.010353 1135.965942,81.073273 1135.957031,80.469856   C1135.612183,80.325760 1135.267334,80.181671 1134.987183,80.012024   C1134.987183,80.012024 1134.967041,80.078568 1134.921265,79.494255   C1134.586548,79.337662 1134.251709,79.181068 1133.984619,79.009308   C1133.984619,79.009308 1133.989014,79.078491 1133.828003,78.559654   C1133.526733,78.379997 1133.225464,78.200340 1132.990479,78.011642   C1132.990479,78.011642 1132.962036,78.072151 1132.979370,77.454376   C1132.627441,77.318993 1132.275513,77.183609 1131.988403,77.007462   C1131.988403,77.007462 1131.956177,77.076874 1131.925293,76.484879   C1131.592529,76.333366 1131.259766,76.181847 1130.990479,76.009651   C1130.990479,76.009651 1130.973511,76.074165 1130.907104,75.498573   C1130.578735,75.340111 1130.250488,75.181648 1129.988159,75.009613   C1129.988159,75.009613 1129.981934,75.076759 1129.879883,74.517540   C1129.558594,74.351044 1129.237427,74.184547 1128.986572,74.010826   C1128.986572,74.010826 1128.988037,74.081566 1128.843872,73.545456   C1128.533325,73.366364 1128.222778,73.187271 1127.983887,73.015831   C1127.983887,73.015831 1127.971924,73.086838 1127.961548,72.459145   C1127.329468,72.038864 1126.697388,71.618576 1125.325806,71.013962   C1122.690186,68.958511 1120.161743,66.744682 1117.399536,64.876114   C1107.409180,58.117802 1097.723999,50.837841 1086.046875,46.985268   C1076.426270,43.811195 1067.104248,40.107018 1056.890015,45.798958   C1053.326538,47.784668 1052.426880,50.547585 1052.164795,53.486572   C1051.172241,64.615700 1050.334473,75.782211 1050.104370,86.948456   C1049.914062,96.177528 1050.056152,105.500168 1051.174927,114.643799   C1052.185181,122.899223 1055.655884,130.622681 1064.161621,133.900116   C1076.560913,138.677795 1088.718262,144.075195 1102.099609,146.182144   C1120.119263,149.019485 1135.279907,144.488266 1146.830200,130.338425   C1151.344360,124.808311 1154.990967,117.678749 1152.477905,110.425972   C1149.553955,101.986694 1144.855957,94.162064 1140.689087,85.624626   C1140.431763,85.412727 1140.174438,85.200829 1140.006836,85.005013   C1140.006836,85.005013 1139.991943,85.095100 1139.840942,84.557312   C1139.533813,84.375931 1139.226685,84.194542 1138.989380,84.012390   C1138.989380,84.012390 1138.981689,84.081787 1138.880249,83.522346  z"/>
<path class="bradsucks-logo-letter-s" opacity="1.000000" stroke="none" d="M162.871002,691.439575   C165.671921,696.204590 168.792953,700.536987 168.306427,706.836609   C167.894424,712.171509 165.362030,715.433044 161.192474,716.881531   C152.118118,720.033752 142.849991,722.792358 133.472183,724.851562   C126.800064,726.316589 119.817070,726.354187 112.981659,727.109009   C112.429390,727.169983 111.945724,727.852234 111.715088,728.622925   C78.645775,729.000000 45.291542,729.000000 11.468543,728.560547   C10.984676,726.790283 11.113785,725.439453 10.931917,724.131836   C9.318276,712.530151 7.587452,700.944458 6.018141,689.336853   C4.903729,681.094116 4.021917,672.819885 2.903563,664.577698   C2.822027,663.976746 1.659796,663.522461 1.000005,663.000000   C1.000000,657.645081 1.000000,652.290100 1.379042,646.462158   C3.819715,647.145813 5.884710,648.296570 7.942378,649.460205   C16.029045,654.033508 24.113367,658.610962 32.258114,663.504639   C39.176853,667.409668 46.030327,671.007935 52.916851,674.541870   C53.182961,674.678345 53.766739,674.195740 54.567474,673.995605   C56.296909,674.827820 57.642124,675.699524 59.029484,676.497986   C62.791737,678.663391 67.594063,678.002380 70.542213,674.721130   C73.077744,671.899170 71.952400,668.822266 70.356850,666.131165   C66.667656,659.908813 62.580959,653.920898 58.926712,647.679199   C51.016205,634.167419 42.858532,620.774536 35.603199,606.913574   C30.176888,596.546814 26.379223,585.338379 21.182957,574.837891   C13.777255,559.872681 7.219996,544.678284 3.878698,528.222351   C3.501233,526.363403 1.987072,524.735229 1.000003,523.000000   C1.000000,506.645782 1.000000,490.291534 1.000001,473.468658   C1.950671,472.514130 3.233577,472.272827 3.799711,471.503845   C8.537360,465.068756 10.762306,464.782806 18.894140,465.784546   C29.541529,467.096161 38.643585,471.727478 47.016430,477.690155   C63.009644,489.079681 78.479660,501.200928 94.353584,512.762085   C103.627357,519.516357 113.062920,526.094116 122.791191,532.165649   C132.537384,538.248413 142.853806,543.414490 152.645721,549.429382   C154.700836,550.691833 156.439041,553.766479 156.821457,556.238403   C158.816681,569.135498 160.211655,582.123962 162.051529,595.047058   C163.081909,602.284302 164.662689,609.441772 165.796982,616.666321   C166.149796,618.913513 165.851913,621.262817 165.851913,624.935425   C160.128662,622.606079 154.814835,620.897766 149.928787,618.364380   C138.134247,612.248901 126.617828,605.595825 114.804153,599.519348   C112.160873,598.159790 108.592270,597.382080 105.741226,597.910278   C100.640022,598.855286 98.595421,602.730347 100.933769,607.352173   C104.862656,615.117676 109.070816,622.856445 114.129189,629.912720   C125.414406,645.655396 137.296677,660.969971 149.205536,676.947937   C149.704117,677.611877 149.910461,677.810181 150.094437,678.031738   C150.094437,678.031738 149.974686,677.997925 150.118530,678.174316   C150.536469,678.570801 150.810562,678.790955 151.084641,679.011047   C151.084641,679.011047 150.991577,679.001038 151.085815,679.215027   C151.482361,679.617615 151.784637,679.806213 152.086929,679.994812   C152.086929,679.994812 152.004807,679.995117 152.087006,680.217224   C152.473938,680.624207 152.778641,680.809082 153.083344,680.993896   C153.083359,680.993896 153.006454,680.991150 153.074799,681.224548   C153.455063,681.635010 153.767014,681.812073 154.078949,681.989197   C154.078949,681.989197 154.009033,681.989075 154.058136,682.238281   C154.430786,682.650940 154.754333,682.814331 155.077850,682.977661   C155.077850,682.977722 155.011032,682.986755 155.040070,683.249695   C155.405563,683.666016 155.742035,683.819397 156.078491,683.972778   C156.078491,683.972778 156.013016,683.988770 156.049744,684.245361   C156.416611,684.660645 156.746719,684.819336 157.076843,684.978027   C157.076828,684.978027 157.010712,684.989441 157.047943,685.246216   C157.415726,685.661316 157.746277,685.819641 158.076813,685.977966   C158.076813,685.977966 158.010727,685.989380 158.048157,686.246216   C158.416443,686.660706 158.747299,686.818420 159.078156,686.976196   C159.078156,686.976196 159.011719,686.987793 159.045105,687.247314   C159.412231,687.662415 159.745987,687.817932 160.079742,687.973511   C160.079742,687.973450 160.013229,687.986816 160.045593,688.245422   C160.409866,688.661743 160.741776,688.819458 161.073700,688.977173   C161.073700,688.977173 161.008820,688.989990 161.040009,689.250366   C161.405457,689.660583 161.739731,689.810425 162.074005,689.960205   C162.074020,689.960205 162.003403,689.991211 161.965683,690.283081   C162.242310,690.863098 162.556656,691.151306 162.871002,691.439575  z" />
<path class="bradsucks-logo-letter-u" opacity="1.000000" stroke="none" d="M444.857147,588.827271   C444.906647,624.976929 445.108826,661.127625 444.884552,697.275574   C444.836212,705.065063 439.369446,710.161682 433.224823,714.299316   C423.228027,721.031006 412.020935,724.323730 400.225067,726.030762   C396.261475,726.604370 392.345703,727.508240 388.704041,728.630615   C336.979095,729.000000 284.958221,729.000000 232.468658,729.000000   C230.990417,728.333618 230.058334,727.286499 228.958664,727.062744   C221.820343,725.610107 214.431534,725.012878 207.537643,722.830994   C199.176697,720.184631 195.850876,716.375916 195.899872,706.900208   C196.129028,662.582947 195.982849,618.263733 196.039246,573.945312   C196.042191,571.631958 196.674011,569.319336 196.888489,567.856201   C212.372513,569.982910 226.962341,572.525330 241.661972,573.841064   C254.179138,574.961365 266.822113,574.859619 279.410645,574.897217   C283.712067,574.910095 285.150635,575.991577 285.104156,580.500549   C284.875977,602.657166 284.586151,624.827576 285.131042,646.973083   C285.566193,664.658325 292.649567,675.689758 309.301086,678.215210   C324.791229,680.564514 341.390503,679.828796 352.041779,665.087158   C357.576416,657.427002 357.707458,647.835632 356.761414,638.524475   C356.580261,636.741455 356.040192,634.973145 356.035980,633.197144   C355.980469,609.871765 356.120361,586.544739 355.857880,563.222168   C355.814545,559.369263 357.428741,558.099548 360.477509,557.076050   C371.437683,553.396484 382.557251,550.090271 393.246826,545.735413   C403.314880,541.633728 412.935333,536.425232 422.716095,531.628967   C428.964508,528.564880 435.120361,525.311096 441.387146,522.286133   C442.288147,521.851196 443.579956,522.225769 444.992676,522.225769   C444.992676,535.372742 444.992676,548.351013 444.697906,562.123596   C444.554474,571.554382 444.705811,580.190857 444.857147,588.827271  z"/>
<path class="bradsucks-logo-letter-c" opacity="1.000000" stroke="none" d="M611.468628,729.000000   C610.158691,728.334106 609.348572,727.132568 608.471313,727.081360   C590.652893,726.041565 573.442688,721.805054 556.409119,716.916138   C540.006531,712.208374 524.391296,705.305908 510.407166,695.575562   C502.936493,690.377319 496.911346,683.099243 490.245178,676.747864   C482.944153,669.791687 478.814514,661.191589 476.720306,651.401001   C473.495667,636.325562 474.407654,621.437073 478.790649,606.806580   C481.437531,597.971252 484.438782,589.182556 488.094910,580.724792   C492.258362,571.093506 497.313202,561.846558 502.011047,552.447754   C504.023682,548.421021 505.987061,544.362000 508.189026,540.438965   C519.250244,520.732727 531.456360,501.806458 545.987976,484.422089   C551.922241,477.322876 557.243469,469.713226 563.124634,462.567108   C567.232300,457.575928 571.817322,452.977570 576.838440,448.130249   C577.646423,447.678650 577.805054,447.300598 577.963745,446.922516   C577.963745,446.922516 577.987366,446.986969 578.245605,446.951111   C578.661499,446.583374 578.819153,446.251465 578.976807,445.919556   C578.976807,445.919556 578.988098,445.986267 579.265991,445.983093   C579.684265,445.626038 579.824524,445.272156 579.964844,444.918274   C579.964844,444.918304 579.984497,444.984955 580.254272,444.969238   C580.673767,444.609253 580.823486,444.265015 580.973206,443.920776   C580.973206,443.920776 580.987183,443.987030 581.257080,443.970612   C581.675659,443.609711 581.824341,443.265259 581.973022,442.920776   C581.972961,442.920776 581.987183,442.987030 582.257080,442.970703   C582.675598,442.609802 582.824219,442.265259 582.972900,441.920715   C582.972900,441.920746 582.987061,441.987030 583.257080,441.970825   C583.675720,441.609985 583.824280,441.265350 583.972900,440.920746   C583.972900,440.920746 583.987061,440.987000 584.257080,440.970825   C584.675720,440.610046 584.824341,440.265411 584.972900,439.920746   C584.972900,439.920746 584.987061,439.987000 585.257080,439.970825   C585.675720,439.610016 585.824341,439.265381 585.972900,438.920746   C585.972900,438.920746 585.987000,438.987030 586.257080,438.973053   C586.678162,438.615448 586.829102,438.271851 586.980103,437.928223   C586.980103,437.928223 586.992737,437.992096 587.314880,438.033997   C589.416870,436.027161 591.196716,433.978455 592.976501,431.929749   C592.976501,431.929718 592.989746,431.993805 593.307922,432.031372   C594.070068,431.354431 594.514099,430.639893 594.958130,429.925385   C594.958130,429.925385 594.988342,429.990387 595.302979,429.999512   C595.718201,429.609161 595.818787,429.209686 595.919312,428.810211   C602.723755,422.929352 609.513184,417.030945 616.335815,411.171295   C630.801575,398.747437 645.893250,387.255402 662.493225,377.696106   C677.506042,369.050842 693.171692,362.209351 710.052307,358.534393   C729.465759,354.308075 748.116211,355.713501 764.920898,367.863647   C767.469604,369.706451 767.647034,371.148285 766.050659,373.436493   C755.287842,388.863464 744.480347,404.259705 733.802368,419.745270   C725.793945,431.359436 717.980835,443.108032 710.032349,454.763733   C707.108887,459.050781 703.650330,463.024109 701.156250,467.538574   C698.530090,472.292206 694.529968,471.882324 691.043945,470.392365   C675.166626,463.606110 661.177612,468.445648 647.628479,476.701813   C637.697449,482.753235 627.239746,488.157867 618.127136,495.272919   C609.241211,502.210907 601.099121,510.397614 593.853027,519.058899   C586.193359,528.214661 579.197937,538.135925 573.310974,548.516052   C564.335022,564.342896 559.140686,581.674438 561.202271,600.036987   C562.863708,614.835449 570.297058,626.697815 583.702454,634.333130   C595.460938,641.030396 607.938293,645.246704 621.496155,643.855347   C633.903931,642.581909 645.355957,637.690613 656.042908,631.367981   C672.376038,621.704895 685.289551,608.366394 695.614136,592.576477   C697.671082,589.430603 699.500793,589.485352 701.978577,591.003174   C711.315308,596.722595 720.901489,602.108887 729.794067,608.460449   C740.877197,616.376709 751.598022,624.849304 762.019043,633.623596   C767.579956,638.305786 768.286133,638.551331 764.006165,646.268921   C755.995544,660.713257 746.463501,673.947327 735.423523,686.315796   C719.806030,703.812439 701.758362,717.072510 678.856262,723.040955   C672.756104,724.630737 666.513489,725.669617 660.353271,727.037659   C659.310791,727.269226 658.354370,727.888672 657.679077,728.664429   C642.645752,729.000000 627.291565,729.000000 611.468628,729.000000  z"/>
<path class="bradsucks-logo-letter-k" opacity="1.000000" stroke="none" d="M795.916138,371.891022   C795.944092,346.103760 796.039490,320.316193 795.919250,294.529602   C795.903259,291.107117 796.861023,289.397400 800.042847,287.837341   C812.799927,281.582520 825.161377,274.497955 838.042480,268.525482   C851.020447,262.508087 864.420105,257.393646 877.690002,252.019424   C879.727539,251.194244 882.060913,251.099625 884.989563,250.522919   C884.989563,276.487457 884.989563,301.866486 884.668030,328.041260   C884.258972,338.594299 884.171387,348.351624 884.083862,358.108978   C884.055908,378.585205 884.012817,399.061401 884.012939,419.537628   C884.013000,423.522736 887.478333,428.659760 890.541260,428.935242   C895.218140,429.355896 897.823181,426.676422 899.041687,422.435699   C903.363342,407.396423 907.524597,392.309631 912.001282,377.316864   C915.641907,365.123962 919.628418,353.034027 923.494995,340.909058   C932.981995,311.159363 942.473877,281.411255 952.000916,251.674377   C953.617188,246.629425 955.079834,241.487015 957.294739,236.705170   C958.218933,234.709869 960.805603,232.386581 962.838989,232.176804   C979.103271,230.498901 995.414490,230.252075 1011.605469,233.021378   C1024.214844,235.178101 1036.765869,237.675873 1049.685669,240.507812   C1049.150024,243.492294 1048.220459,245.974487 1047.405029,248.493637   C1046.167480,252.317230 1045.009399,256.166534 1043.817505,260.004913   C1039.563110,270.946747 1035.124023,281.821381 1031.112183,292.851440   C1027.818237,301.907806 1025.032227,311.148895 1021.599487,320.756042   C1020.136841,324.491852 1019.095764,327.779724 1018.054688,331.067596   C1018.054688,331.067596 1018.016541,331.010223 1017.725586,331.162170   C1017.309448,332.231354 1017.184326,333.148590 1017.059204,334.065826   C1017.059143,334.065826 1017.015930,334.011108 1016.725098,334.161987   C1016.309265,335.231018 1016.184265,336.149200 1016.059265,337.067352   C1016.059265,337.067352 1016.017090,337.011322 1015.713379,337.158173   C1014.946960,339.229706 1014.484253,341.154419 1014.021484,343.079102   C1014.021484,343.079102 1014.007690,343.003754 1013.747192,343.133423   C1013.581055,344.003876 1013.675415,344.744690 1013.769714,345.485504   C1004.478760,376.795776 995.072449,408.072906 986.051941,439.460876   C984.998840,443.125214 985.375793,447.569824 986.285461,451.366180   C990.641785,469.547424 995.400574,487.632416 1000.034424,505.746979   C1004.268250,522.297729 1008.752563,538.788269 1012.714722,555.403564   C1017.699646,576.307922 1022.229004,597.320618 1027.022217,618.271118   C1032.637817,642.816833 1038.458374,667.316528 1043.925903,691.894958   C1046.598267,703.908203 1048.671631,716.054749 1051.008057,728.570435   C1020.312439,729.000000 989.624878,729.000000 958.457703,728.637939   C955.048950,714.685242 952.174255,701.082520 949.173218,687.507690   C946.864258,677.063477 944.431702,666.646118 941.991028,656.231567   C937.949585,638.987000 933.939880,621.734253 929.759155,604.523254   C926.628662,591.635437 923.227661,578.813416 919.989014,565.951599   C917.143616,554.651306 914.546875,543.284729 911.494629,532.041199   C907.857300,518.641968 903.689880,505.386200 900.082031,491.979523   C898.562927,486.334198 895.012085,483.993011 889.348145,485.929108   C884.038879,487.744019 884.025635,492.275604 884.023804,496.643433   C883.990784,574.095642 884.000000,651.547791 884.000000,729.000000   C854.645752,729.000000 825.291565,729.000000 795.468628,729.000000   C795.003479,620.251465 795.006958,511.502960 795.331970,401.958740   C795.741028,391.405701 795.828613,381.648376 795.916138,371.891022  z"/>
<path class="bradsucks-logo-letter-s" opacity="1.000000" stroke="none" d="M1201.952393,434.169403   C1198.951904,430.931793 1196.076538,427.564514 1192.906860,424.502075   C1190.787476,422.454437 1188.359863,420.667969 1185.871582,419.074554   C1182.558838,416.953003 1178.892944,418.436646 1177.197632,420.798065   C1175.559326,423.079956 1174.669067,427.287933 1175.625000,429.833038   C1188.086792,463.012939 1201.027710,496.012360 1213.655884,529.130554   C1222.283569,551.757385 1230.953735,574.379761 1238.898682,597.249451   C1241.943848,606.015198 1243.006836,615.466980 1245.031250,624.593262   C1245.264038,625.642456 1245.872070,626.608398 1246.653076,627.306519   C1247.000000,629.041687 1247.000000,631.083313 1246.598877,633.327637   C1245.798462,635.381653 1245.226318,637.214905 1245.030884,639.087585   C1244.318115,645.917969 1244.575806,652.970581 1242.944092,659.562256   C1237.249878,682.565491 1221.164062,698.455566 1203.512085,712.392029   C1195.284058,718.888062 1184.563721,722.220703 1175.005127,727.050659   C1174.211182,727.451843 1173.662598,728.338745 1173.000000,729.000000   C1145.312378,729.000000 1117.624878,729.000000 1089.468628,729.000000   C1088.334229,722.495728 1087.483032,716.004150 1087.039062,709.484741   C1085.921631,693.080566 1085.064819,676.658752 1083.955811,660.253906   C1083.084473,647.364624 1081.990723,634.490356 1080.999146,621.609192   C1079.990356,608.502380 1079.016479,595.392700 1077.956177,582.290039   C1077.710449,579.254578 1077.175781,576.242432 1076.606812,571.959412   C1092.687988,576.109802 1107.683105,579.877991 1122.616699,583.876648   C1130.192505,585.905151 1137.641846,588.401794 1145.178223,590.583435   C1149.075439,591.711487 1154.057129,586.134460 1153.194824,581.654114   C1152.953613,580.400696 1152.410278,579.205383 1152.211914,577.342712   C1150.286499,571.131958 1148.154541,565.562012 1145.960083,559.612305   C1143.659790,553.913940 1141.422119,548.595276 1139.184448,543.276550   C1138.281006,541.212769 1137.377441,539.148987 1136.262817,536.657715   C1133.720703,530.104187 1131.389648,523.978088 1129.018311,517.481140   C1126.973511,511.864868 1125.120972,506.555115 1122.934937,501.386475   C1117.077759,487.538300 1111.077759,473.750610 1105.062012,459.568726   C1099.744385,446.379486 1094.519653,433.551910 1089.202148,420.762970   C1088.892822,420.018982 1087.830811,419.588013 1087.119019,419.011383   C1081.833740,404.633118 1078.015991,389.705750 1077.461914,374.544037   C1076.740723,354.807526 1076.010742,334.747437 1083.007568,315.660217   C1088.002808,302.033508 1096.086670,290.471252 1110.858643,286.924194   C1120.609985,284.582672 1130.768799,285.028259 1140.570435,289.816071   C1151.627930,295.217438 1161.443848,302.124695 1171.005249,310.627258   C1171.915771,311.455170 1172.499146,311.720398 1173.082397,311.985626   C1173.082397,311.985626 1173.017212,311.955139 1172.982666,312.256378   C1173.325684,312.690369 1173.703247,312.823120 1174.080688,312.955872   C1174.080688,312.955872 1174.013062,312.991974 1173.976440,313.309875   C1179.318604,318.735962 1184.697510,323.844147 1190.076294,328.952332   C1190.076294,328.952332 1190.008057,328.987122 1189.981323,329.279907   C1190.327148,329.694489 1190.699585,329.816284 1191.072144,329.938110   C1191.072144,329.938110 1191.000000,329.998322 1190.979980,330.287415   C1191.330566,330.696899 1191.701294,330.817261 1192.072021,330.937622   C1192.072021,330.937622 1192.001709,330.998871 1191.984497,331.293762   C1192.346802,331.707764 1192.726440,331.826874 1193.105957,331.946014   C1193.105957,331.946014 1193.045044,331.983398 1193.094116,332.283936   C1193.550171,333.070953 1193.957275,333.557465 1194.364258,334.043976   C1202.924927,344.021759 1211.536499,353.956696 1220.016846,364.002289   C1222.725830,367.211334 1224.579102,371.324829 1227.725220,373.940399   C1232.566284,377.964966 1233.276978,383.350006 1233.921021,388.700378   C1235.231445,399.588196 1235.846924,410.557953 1237.041992,421.461823   C1238.535034,435.083038 1240.372314,448.666138 1241.954468,462.278107   C1242.438232,466.440521 1242.571411,470.643707 1241.751099,475.566925   C1232.198120,465.604340 1222.645142,455.641724 1213.006226,445.000061   C1210.701294,439.384644 1207.760864,435.227722 1201.952393,434.169403  z"/>
</svg>